<svg width="443" height="230" xmlns="http://www.w3.org/2000/svg">
 <metadata>
 </metadata>

 <g>
  <title>background</title>
  <rect fill="none" id="canvas_background" height="232" width="445" y="-1" x="-1"/>
 </g>
 <g>
  <title>Layer 1</title>
  <path fill-rule="evenodd" fill="#f2143d" d="m79.241348,91.254033l35.1,0l52.648,-53.177l52.699,53.222l35.953,0l-14.849,-15l37.349,-37.718l52.2,52.718l36.9,0l-89.1,-89.992l-55.508,56.065l-55.523,-56.073l-43.612,44.05l0,-15l-12.757,0l0,27.725l-31.5,33.18z" class="cls-1" id="Фигура_1"/>
  <path fill-rule="evenodd" fill="#f2143d" d="m115.219348,11.489033a8.724,8.724 0 0 1 2.577,2.983a6.491,6.491 0 0 1 0.539,2.592c0.035,1.338 -1.1,2.833 -2.22,4.1c-0.527,0.6 -1.041,1.182 -1.447,1.716a3.754,3.754 0 0 0 -0.68,1.183a2.964,2.964 0 0 0 0.1,1.821a5.843,5.843 0 0 0 1.563,2.338l-0.822,1.16a7.983,7.983 0 0 1 -1.9,-2.421a5.5,5.5 0 0 1 -0.456,-1.869a3.893,3.893 0 0 1 0.049,-0.934a5.644,5.644 0 0 1 1.106,-2.213c0.643,-0.915 1.815,-2.015 2.529,-3.173a4.9,4.9 0 0 0 0.734,-1.739c0.4,-2.282 -2.46,-4.366 -2.46,-4.366l0.788,-1.178z" class="cls-1" id="Фигура_3"/>
  <path fill-rule="evenodd" fill="#f2143d" d="m120.277348,11.658033a8.724,8.724 0 0 1 2.577,2.983a6.508,6.508 0 0 1 0.539,2.592c0.035,1.338 -1.1,2.833 -2.22,4.1c-0.527,0.6 -1.041,1.182 -1.447,1.715a3.77,3.77 0 0 0 -0.68,1.184a2.964,2.964 0 0 0 0.1,1.821a5.833,5.833 0 0 0 1.563,2.337l-0.822,1.161a7.983,7.983 0 0 1 -1.9,-2.421a5.471,5.471 0 0 1 -0.456,-1.869a3.825,3.825 0 0 1 0.049,-0.934a5.644,5.644 0 0 1 1.106,-2.213c0.643,-0.915 1.815,-2.015 2.529,-3.173a4.921,4.921 0 0 0 0.734,-1.739c0.4,-2.282 -2.46,-4.366 -2.46,-4.366l0.788,-1.178z" class="cls-1" id="Фигура_3_копия"/>
  <rect fill="#f2143d" height="12.281" width="12.156" y="57.143033" x="153.929348" class="cls-2" id="Прямоугольник_1"/>
  <rect fill="#f2143d" height="12.281" width="12.156" y="57.143033" x="168.335348" class="cls-2" id="Прямоугольник_1_копия"/>
  <rect fill="#f2143d" height="12.281" width="12.156" y="72.174033" x="153.929348" class="cls-2" id="Прямоугольник_1_копия_2"/>
  <rect fill="#f2143d" height="12.281" width="12.156" y="72.174033" x="168.335348" class="cls-2" id="Прямоугольник_1_копия_2-2"/>
  <rect fill="#f2143d" height="12.281" width="12.156" y="57.143033" x="265.085348" class="cls-2" id="Прямоугольник_1_копия_3"/>
  <rect fill="#f2143d" height="12.281" width="12.156" y="57.143033" x="279.491348" class="cls-2" id="Прямоугольник_1_копия_3-2"/>
  <rect fill="#f2143d" height="12.281" width="12.156" y="72.174033" x="265.085348" class="cls-2" id="Прямоугольник_1_копия_3-3"/>
  <rect fill="#f2143d" height="12.281" width="12.156" y="72.174033" x="279.491348" class="cls-2" id="Прямоугольник_1_копия_3-4"/>
  <path fill-rule="evenodd" fill="#f2143d" d="m2.191348,123.409033l0,53.32l10.986,0l0,-14.575l-1.1,-25.122l14.355,39.7l7.544,0l14.394,-39.733l-1.1,25.159l0,14.571l11.023,0l0,-53.32l-14.427,0l-13.625,38.672l-13.7,-38.672l-14.35,0z" class="cls-1" id="M"/>
  <path fill-rule="evenodd" fill="#f2143d" d="m101.610348,176.729033l11.682,0l-19.959,-53.32l-10.18,0l-19.849,53.32l11.682,0l3.662,-10.986l19.263,0l3.699,10.986zm-13.369,-39.844l6.7,19.959l-13.327,0l6.627,-19.959z" class="cls-1" id="A"/>
  <path fill-rule="evenodd" fill="#f2143d" d="m131.123348,123.409033l-10.982,0l0,53.32l34.31,0l0,-8.825l-23.328,0l0,-44.495z" class="cls-1" id="L"/>
  <path fill-rule="evenodd" fill="#f2143d" d="m172.791348,123.409033l-10.986,0l0,53.32l10.986,0l0,-53.32z" class="cls-1" id="I"/>
  <path fill-rule="evenodd" fill="#f2143d" d="m227.923348,123.409033l-10.95,0l0,35.156l-21.424,-35.156l-10.986,0l0,53.32l10.986,0l0,-35.083l21.392,35.083l10.987,0l0,-53.32l-0.005,0z" class="cls-1" id="N"/>
  <path fill-rule="evenodd" fill="#f2143d" d="m284.948348,148.899033a31.942,31.942 0 0 0 -2.838,-13.824a21.132,21.132 0 0 0 -8.02,-9.192a23.5,23.5 0 0 0 -23.694,0a21.126,21.126 0 0 0 -8.02,9.192a32.018,32.018 0 0 0 -2.838,13.861l0,2.637a31.262,31.262 0 0 0 2.893,13.6a21.162,21.162 0 0 0 8.056,9.1a23.537,23.537 0 0 0 23.713,-0.037a20.964,20.964 0 0 0 7.965,-9.155a32.194,32.194 0 0 0 2.783,-13.806l0,-2.376zm-11.133,2.564q-0.036,8.313 -3,12.652a10.514,10.514 0 0 1 -17.138,-0.165q-3,-4.5 -3,-12.67l0,-2.6q0.036,-8.311 3.039,-12.616a10.609,10.609 0 0 1 17.1,0.055q3,4.359 3,12.745l0,2.6l-0.001,-0.001z" class="cls-1" id="O"/>
  <path fill-rule="evenodd" fill="#f2143d" d="m304.213348,123.409033l-12.195,0l18.494,53.32l11.462,0l18.567,-53.32l-12.232,0l-12.084,40.1l-12.012,-40.1z" class="cls-1" id="V"/>
  <path fill-rule="evenodd" fill="#f2143d" d="m376.632348,176.729033l13.074,0l-19.483,-29.63l18.933,-23.694l-13.515,0l-13.586,17.541l-4.834,6.629l0,-24.166l-10.98,0l0,53.32l10.987,0l0,-15.23l5.713,-6.153l13.691,21.383z" class="cls-1" id="K"/>
  <path fill-rule="evenodd" fill="#f2143d" d="m429.610348,176.729033l11.682,0l-19.959,-53.32l-10.18,0l-19.849,53.32l11.682,0l3.662,-10.986l19.263,0l3.699,10.986zm-13.369,-39.844l6.7,19.959l-13.327,0l6.627,-19.959z" class="cls-1" id="A-2"/>
  <path fill-rule="evenodd" fill="#f2143d" d="m138.368348,228.392033l3.263,0l0,-10.952l3.076,0c2.963,0.113 4.313,1.426 5.063,4.914a32.726,32.726 0 0 0 1.688,6.038l3.375,0a40.237,40.237 0 0 1 -1.95,-6.938c-0.6,-2.626 -1.763,-4.426 -3.713,-5.1l0,-0.113a6.637,6.637 0 0 0 4.763,-6.451a6.3,6.3 0 0 0 -1.988,-4.8c-1.575,-1.425 -3.825,-2.062 -7.313,-2.062a33.948,33.948 0 0 0 -6.264,0.525l0,24.941l0,-0.002zm3.263,-22.652a13.426,13.426 0 0 1 3.226,-0.3c3.45,0.038 5.813,1.463 5.813,4.726c0,2.888 -2.213,4.8 -5.7,4.8l-3.339,0l0,-9.227l0,0.001z" class="cls-1" id="R"/>
  <path fill-rule="evenodd" fill="#f2143d" d="m171.776348,202.699033c-6.751,0 -11.739,5.251 -11.739,13.278c0,7.651 4.688,12.827 11.364,12.827c6.451,0 11.739,-4.614 11.739,-13.315c0.001,-7.5 -4.463,-12.79 -11.364,-12.79zm-0.15,2.663c5.438,0 8.064,5.251 8.064,10.277c0,5.739 -2.926,10.5 -8.1,10.5c-5.139,0 -8.064,-4.838 -8.064,-10.239c-0.001,-5.548 2.699,-10.537 8.1,-10.537l0,-0.001z" class="cls-1" id="O-2"/>
  <path fill-rule="evenodd" fill="#f2143d" d="m187.606348,228.392033l14.065,0l0,-2.738l-10.8,0l0,-22.541l-3.263,0l0,25.279l-0.002,0z" class="cls-1" id="L-2"/>
  <path fill-rule="evenodd" fill="#f2143d" d="m220.320348,213.840033l-9.826,0l0,-7.989l10.389,0l0,-2.738l-13.652,0l0,25.279l14.215,0l0,-2.738l-10.952,0l0,-9.114l9.826,0l0,-2.7z" class="cls-1" id="E"/>
  <path fill-rule="evenodd" fill="#f2143d" d="m227.480348,228.392033l3.261,0l0,-10.126a11.257,11.257 0 0 0 2.625,0.225c3.188,0 6,-0.938 7.726,-2.776a7.443,7.443 0 0 0 1.951,-5.4a6.8,6.8 0 0 0 -2.213,-5.288c-1.5,-1.35 -3.863,-2.1 -7.089,-2.1a37.906,37.906 0 0 0 -6.264,0.487l0,24.979l0.003,-0.001zm3.261,-22.615a13.68,13.68 0 0 1 3.075,-0.263c3.6,0 5.964,1.613 5.964,4.951c0,3.488 -2.4,5.4 -6.339,5.4a10.963,10.963 0 0 1 -2.7,-0.262l0,-9.827l0,0.001z" class="cls-1" id="P"/>
  <path fill-rule="evenodd" fill="#f2143d" d="m248.606348,228.392033l14.065,0l0,-2.738l-10.8,0l0,-22.541l-3.263,0l0,25.279l-0.002,0z" class="cls-1" id="L-3"/>
  <path fill-rule="evenodd" fill="#f2143d" d="m282.033348,220.441033l2.7,7.951l3.488,0l-8.626,-25.279l-3.938,0l-8.589,25.279l3.373,0l2.626,-7.951l8.964,0l0.002,0zm-8.291,-2.551l2.475,-7.313c0.488,-1.538 0.9,-3.076 1.275,-4.576l0.075,0c0.375,1.463 0.751,2.963 1.313,4.613l2.476,7.276l-7.615,0l0.001,0z" class="cls-1" id="A-3"/>
  <path fill-rule="evenodd" fill="#f2143d" d="m300.241348,228.392033l0,-10.764l8.477,-14.515l-3.713,0l-3.638,6.976c-0.975,1.913 -1.838,3.563 -2.551,5.214l-0.075,0c-0.787,-1.763 -1.538,-3.3 -2.513,-5.214l-3.563,-6.976l-3.713,0l7.989,14.552l0,10.727l3.3,0z" class="cls-1" id="Y"/>
 </g>
</svg>